<svg width="104" height="38" viewBox="0 0 104 38" fill="none" xmlns="http://www.w3.org/2000/svg">
<path d="M7.872 3.736V30.76H20.832L20.016 37H0V3.736H7.872Z" fill="#141414"/>
<path d="M34.2866 10.696C38.1906 10.696 41.2466 11.896 43.4546 14.296C45.6626 16.664 46.7666 19.992 46.7666 24.28C46.7666 27 46.2546 29.384 45.2306 31.432C44.2386 33.448 42.7986 35.016 40.9106 36.136C39.0546 37.256 36.8466 37.816 34.2866 37.816C30.4146 37.816 27.3586 36.632 25.1186 34.264C22.9106 31.864 21.8066 28.52 21.8066 24.232C21.8066 21.512 22.3026 19.144 23.2946 17.128C24.3186 15.08 25.7586 13.496 27.6146 12.376C29.5026 11.256 31.7266 10.696 34.2866 10.696ZM34.2866 16.264C32.7506 16.264 31.5986 16.92 30.8306 18.232C30.0626 19.512 29.6786 21.512 29.6786 24.232C29.6786 27.016 30.0466 29.048 30.7826 30.328C31.5506 31.608 32.7186 32.248 34.2866 32.248C35.8226 32.248 36.9746 31.608 37.7426 30.328C38.5106 29.016 38.8946 27 38.8946 24.28C38.8946 21.496 38.5106 19.464 37.7426 18.184C37.0066 16.904 35.8546 16.264 34.2866 16.264Z" fill="#141414"/>
<path d="M65.7259 10.696C68.7659 10.696 71.1019 11.896 72.7339 14.296C74.3659 16.664 75.1819 19.992 75.1819 24.28C75.1819 26.904 74.7659 29.24 73.9339 31.288C73.1339 33.336 71.9659 34.936 70.4299 36.088C68.9259 37.24 67.1339 37.816 65.0539 37.816C63.6779 37.816 62.4139 37.528 61.2619 36.952C60.1419 36.376 59.1819 35.576 58.3819 34.552L57.9979 37H51.2779V1.38399L58.8619 0.567993V14.104C59.6299 13.048 60.6059 12.216 61.7899 11.608C63.0059 11 64.3179 10.696 65.7259 10.696ZM62.8459 32.296C65.8219 32.296 67.3099 29.624 67.3099 24.28C67.3099 21.24 66.9579 19.144 66.2539 17.992C65.5499 16.84 64.5259 16.264 63.1819 16.264C61.4859 16.264 60.0459 17.256 58.8619 19.24V29.848C59.3419 30.616 59.9179 31.224 60.5899 31.672C61.2939 32.088 62.0459 32.296 62.8459 32.296Z" fill="#141414"/>
<path d="M90.9585 10.696C94.8625 10.696 97.9185 11.896 100.127 14.296C102.335 16.664 103.438 19.992 103.438 24.28C103.438 27 102.927 29.384 101.903 31.432C100.911 33.448 99.4705 35.016 97.5825 36.136C95.7265 37.256 93.5185 37.816 90.9585 37.816C87.0865 37.816 84.0305 36.632 81.7905 34.264C79.5825 31.864 78.4785 28.52 78.4785 24.232C78.4785 21.512 78.9745 19.144 79.9665 17.128C80.9905 15.08 82.4305 13.496 84.2865 12.376C86.1745 11.256 88.3985 10.696 90.9585 10.696ZM90.9585 16.264C89.4225 16.264 88.2705 16.92 87.5025 18.232C86.7345 19.512 86.3505 21.512 86.3505 24.232C86.3505 27.016 86.7185 29.048 87.4545 30.328C88.2225 31.608 89.3905 32.248 90.9585 32.248C92.4945 32.248 93.6465 31.608 94.4145 30.328C95.1825 29.016 95.5665 27 95.5665 24.28C95.5665 21.496 95.1825 19.464 94.4145 18.184C93.6785 16.904 92.5265 16.264 90.9585 16.264Z" fill="#141414"/>
</svg>
