<svg width="86" height="83" viewBox="0 0 86 83" fill="none" xmlns="http://www.w3.org/2000/svg">
<path fill-rule="evenodd" clip-rule="evenodd" d="M42.545 0C19.052 0 0 19.047 0 42.545C0 61.342 12.19 77.29 29.095 82.915C31.221 83.309 32.002 81.992 32.002 80.868C32.002 79.854 31.962 76.502 31.944 72.948C20.107 75.521 17.61 67.928 17.61 67.928C15.675 63.01 12.886 61.702 12.886 61.702C9.026 59.062 13.176 59.116 13.176 59.116C17.449 59.416 19.699 63.501 19.699 63.501C23.493 70.005 29.652 68.124 32.079 67.037C32.462 64.287 33.564 62.409 34.781 61.347C25.331 60.272 15.397 56.623 15.397 40.321C15.397 35.676 17.059 31.881 19.781 28.901C19.339 27.829 17.883 23.501 20.193 17.641C20.193 17.641 23.765 16.499 31.893 22.004C35.288 21.061 38.928 20.588 42.543 20.572C46.159 20.589 49.801 21.062 53.201 22.004C61.321 16.5 64.889 17.642 64.889 17.642C67.205 23.502 65.749 27.829 65.307 28.902C68.035 31.88 69.685 35.676 69.685 40.322C69.685 56.662 59.732 60.26 50.258 61.312C51.784 62.632 53.144 65.222 53.144 69.192C53.144 74.884 53.096 79.465 53.096 80.866C53.096 81.996 53.862 83.324 56.018 82.906C72.914 77.274 85.088 61.332 85.088 42.541C85.09 19.048 66.042 0 42.545 0Z" fill="white"/>
<path d="M16.115 61.084C16.02 61.296 15.687 61.359 15.385 61.214C15.075 61.074 14.903 60.787 15.003 60.574C15.093 60.358 15.427 60.297 15.736 60.442C16.046 60.582 16.221 60.872 16.115 61.084ZM17.838 63.008C17.635 63.195 17.238 63.108 16.968 62.81C16.69 62.513 16.638 62.116 16.844 61.926C17.052 61.738 17.437 61.826 17.714 62.123C17.994 62.423 18.049 62.816 17.837 63.007L17.838 63.008ZM19.515 65.456C19.255 65.638 18.828 65.468 18.565 65.089C18.303 64.712 18.303 64.259 18.57 64.076C18.834 63.894 19.254 64.058 19.52 64.433C19.782 64.818 19.782 65.272 19.515 65.456ZM21.813 67.824C21.58 68.081 21.083 68.012 20.72 67.661C20.348 67.318 20.245 66.831 20.478 66.574C20.715 66.317 21.214 66.389 21.58 66.737C21.95 67.079 22.062 67.568 21.813 67.824ZM24.985 69.198C24.881 69.532 24.403 69.683 23.921 69.542C23.439 69.396 23.125 69.006 23.221 68.67C23.321 68.334 23.803 68.177 24.288 68.328C24.768 68.472 25.084 68.858 24.985 69.198ZM28.465 69.453C28.478 69.803 28.069 70.095 27.563 70.101C27.055 70.113 26.643 69.829 26.637 69.483C26.637 69.129 27.037 68.841 27.545 68.833C28.051 68.823 28.465 69.105 28.465 69.453ZM31.705 68.902C31.765 69.244 31.415 69.596 30.912 69.689C30.418 69.781 29.962 69.569 29.898 69.229C29.838 68.879 30.195 68.529 30.688 68.437C31.191 68.349 31.641 68.554 31.705 68.902Z" fill="white"/>
</svg>
