<svg width="129" height="60" viewBox="0 0 129 60" fill="none" xmlns="http://www.w3.org/2000/svg">
<path d="M13.288 40.96C13.288 43.616 12.808 45.808 11.848 47.536C10.92 49.264 9.672 50.608 8.104 51.568C6.568 52.56 4.728 53.408 2.584 54.112L0.472 48.544C1.88 48 2.936 47.376 3.64 46.672C4.344 45.968 4.808 45.152 5.032 44.224C5.288 43.296 5.416 42.112 5.416 40.672V12.736H13.288V40.96ZM30.2504 19.696C34.1544 19.696 37.2104 20.896 39.4184 23.296C41.6264 25.664 42.7304 28.992 42.7304 33.28C42.7304 36 42.2184 38.384 41.1944 40.432C40.2024 42.448 38.7624 44.016 36.8744 45.136C35.0184 46.256 32.8104 46.816 30.2504 46.816C26.3784 46.816 23.3224 45.632 21.0824 43.264C18.8744 40.864 17.7704 37.52 17.7704 33.232C17.7704 30.512 18.2664 28.144 19.2584 26.128C20.2824 24.08 21.7224 22.496 23.5784 21.376C25.4664 20.256 27.6904 19.696 30.2504 19.696ZM30.2504 25.264C28.7144 25.264 27.5624 25.92 26.7944 27.232C26.0264 28.512 25.6424 30.512 25.6424 33.232C25.6424 36.016 26.0104 38.048 26.7464 39.328C27.5144 40.608 28.6824 41.248 30.2504 41.248C31.7864 41.248 32.9384 40.608 33.7064 39.328C34.4744 38.016 34.8584 36 34.8584 33.28C34.8584 30.496 34.4744 28.464 33.7064 27.184C32.9704 25.904 31.8184 25.264 30.2504 25.264ZM64.7718 20.512V25.84L53.2518 40.24H65.0118L64.3398 46H44.4678V40.624L56.0358 26.224H45.4758V20.512H64.7718ZM76.435 20.512V46H68.851V20.512H76.435ZM72.595 7.072C73.907 7.072 74.979 7.488 75.811 8.32C76.675 9.12 77.107 10.144 77.107 11.392C77.107 12.64 76.675 13.68 75.811 14.512C74.979 15.312 73.907 15.712 72.595 15.712C71.283 15.712 70.211 15.312 69.379 14.512C68.547 13.68 68.131 12.64 68.131 11.392C68.131 10.144 68.547 9.12 69.379 8.32C70.211 7.488 71.283 7.072 72.595 7.072ZM102.654 38.608C102.654 39.568 102.782 40.272 103.038 40.72C103.326 41.168 103.774 41.504 104.382 41.728L102.798 46.672C101.23 46.544 99.9499 46.208 98.9579 45.664C97.9659 45.088 97.1979 44.192 96.6539 42.976C94.9899 45.536 92.4299 46.816 88.9739 46.816C86.4459 46.816 84.4299 46.08 82.9259 44.608C81.4219 43.136 80.6699 41.216 80.6699 38.848C80.6699 36.064 81.6939 33.936 83.7419 32.464C85.7899 30.992 88.7499 30.256 92.6219 30.256H95.2139V29.152C95.2139 27.648 94.8939 26.624 94.2539 26.08C93.6139 25.504 92.4939 25.216 90.8939 25.216C90.0619 25.216 89.0539 25.344 87.8699 25.6C86.6859 25.824 85.4699 26.144 84.2219 26.56L82.4939 21.568C84.0939 20.96 85.7259 20.496 87.3899 20.176C89.0859 19.856 90.6539 19.696 92.0939 19.696C95.7419 19.696 98.4139 20.448 100.11 21.952C101.806 23.456 102.654 25.712 102.654 28.72V38.608ZM91.1819 41.392C92.9099 41.392 94.2539 40.576 95.2139 38.944V34.432H93.3419C91.6139 34.432 90.3179 34.736 89.4539 35.344C88.6219 35.952 88.2059 36.896 88.2059 38.176C88.2059 39.2 88.4619 40 88.9739 40.576C89.5179 41.12 90.2539 41.392 91.1819 41.392ZM117.202 19.696C119.026 19.696 120.738 19.968 122.338 20.512C123.938 21.056 125.346 21.824 126.562 22.816L123.778 27.088C121.698 25.776 119.602 25.12 117.49 25.12C116.498 25.12 115.73 25.296 115.186 25.648C114.674 25.968 114.418 26.432 114.418 27.04C114.418 27.52 114.53 27.92 114.754 28.24C115.01 28.528 115.506 28.832 116.242 29.152C116.978 29.472 118.114 29.856 119.65 30.304C122.306 31.072 124.274 32.08 125.554 33.328C126.866 34.544 127.522 36.24 127.522 38.416C127.522 40.144 127.026 41.648 126.034 42.928C125.042 44.176 123.682 45.136 121.954 45.808C120.226 46.48 118.306 46.816 116.194 46.816C114.05 46.816 112.05 46.48 110.194 45.808C108.37 45.136 106.818 44.208 105.538 43.024L109.234 38.896C111.378 40.56 113.634 41.392 116.002 41.392C117.154 41.392 118.05 41.184 118.69 40.768C119.362 40.352 119.698 39.76 119.698 38.992C119.698 38.384 119.57 37.904 119.314 37.552C119.058 37.2 118.562 36.88 117.826 36.592C117.09 36.272 115.922 35.888 114.322 35.44C111.794 34.704 109.906 33.68 108.658 32.368C107.41 31.056 106.786 29.424 106.786 27.472C106.786 26 107.202 24.688 108.034 23.536C108.898 22.352 110.114 21.424 111.682 20.752C113.282 20.048 115.122 19.696 117.202 19.696Z" fill="black"/>
</svg>
